<?xml version="1.0" encoding="utf-8"?>
<!-- Generator: Adobe Illustrator 17.0.0, SVG Export Plug-In . SVG Version: 6.00 Build 0)  -->
<!DOCTYPE svg PUBLIC "-//W3C//DTD SVG 1.1//EN" "http://www.w3.org/Graphics/SVG/1.1/DTD/svg11.dtd">
<svg version="1.1"
	 id="svg2" xmlns:dc="http://purl.org/dc/elements/1.1/" xmlns:rdf="http://www.w3.org/1999/02/22-rdf-syntax-ns#" xmlns:sodipodi="http://sodipodi.sourceforge.net/DTD/sodipodi-0.dtd" xmlns:inkscape="http://www.inkscape.org/namespaces/inkscape" xmlns:cc="http://creativecommons.org/ns#" xmlns:svg="http://www.w3.org/2000/svg" sodipodi:docname="uE005-arrow-up.svg" inkscape:version="0.48.3.1 r9886"
	 xmlns="http://www.w3.org/2000/svg" xmlns:xlink="http://www.w3.org/1999/xlink" x="0px" y="0px" width="100px" height="150px"
	 viewBox="0 0 100 150" enable-background="new 0 0 100 150" xml:space="preserve">
<sodipodi:namedview  inkscape:cx="74.999998" objecttolerance="10" borderopacity="1" pagecolor="#ffffff" inkscape:cy="74.999998" gridtolerance="10" showgrid="false" guidetolerance="10" bordercolor="#666666" inkscape:zoom="1.5733333" id="namedview2997" inkscape:pageopacity="0" inkscape:window-width="640" inkscape:pageshadow="2" inkscape:window-maximized="0" inkscape:current-layer="svg2" inkscape:window-y="27" inkscape:window-x="0" inkscape:window-height="480">
	</sodipodi:namedview>
<g id="INSERT">
	<g id="LINE_7_">
		
			<path fill="#020202" stroke="#000000" stroke-width="0.7087" stroke-linecap="round" stroke-linejoin="round" stroke-miterlimit="10" d="
			M47.424,46.555l-4.276,7.406c3.776-0.926,7.724-0.895,11.484,0.092l10.098-17.49H25.577L6,70.471h20.196
			c1.026-3.75,2.972-7.185,5.662-9.992h-8.552l8.039-13.924H47.424z"/>
	</g>
</g>
<g id="INSERT_1_">
	<g id="LINE_15_">
		
			<path fill="#020202" stroke="#000000" stroke-width="0.7087" stroke-linecap="round" stroke-linejoin="round" stroke-miterlimit="10" d="
			M65.297,93.045l10.098,17.49l19.577-33.908L75.395,42.72L65.297,60.21c2.735,2.763,4.736,6.166,5.822,9.9l4.276-7.406
			l8.039,13.924l-8.039,13.924l-4.276-7.406C70.033,86.879,68.032,90.282,65.297,93.045z"/>
	</g>
</g>
<g id="INSERT_2_">
	<g id="ARC_5_">
		
			<path fill="#020202" stroke="#000000" stroke-width="0.7087" stroke-linecap="round" stroke-linejoin="round" stroke-miterlimit="10" d="
			M6,82.785l19.577,33.908H64.73l-10.098-17.49c-3.761,0.987-7.708,1.019-11.484,0.092l4.276,7.406H31.346l-8.039-13.924h8.552
			c-2.69-2.807-4.637-6.242-5.662-9.992H6z"/>
	</g>
</g>
</svg>
