<?xml version="1.0" encoding="utf-8"?>
<!-- Generator: Adobe Illustrator 17.0.0, SVG Export Plug-In . SVG Version: 6.00 Build 0)  -->
<!DOCTYPE svg PUBLIC "-//W3C//DTD SVG 1.1//EN" "http://www.w3.org/Graphics/SVG/1.1/DTD/svg11.dtd">
<svg version="1.1"
	 id="svg2" inkscape:version="0.48.3.1 r9886" sodipodi:docname="uE005-arrow-up.svg" xmlns:sodipodi="http://sodipodi.sourceforge.net/DTD/sodipodi-0.dtd" xmlns:inkscape="http://www.inkscape.org/namespaces/inkscape" xmlns:rdf="http://www.w3.org/1999/02/22-rdf-syntax-ns#" xmlns:cc="http://creativecommons.org/ns#" xmlns:svg="http://www.w3.org/2000/svg" xmlns:dc="http://purl.org/dc/elements/1.1/"
	 xmlns="http://www.w3.org/2000/svg" xmlns:xlink="http://www.w3.org/1999/xlink" x="0px" y="0px" width="100px" height="150px"
	 viewBox="0 0 100 150" enable-background="new 0 0 100 150" xml:space="preserve">
<sodipodi:namedview  inkscape:current-layer="svg2" inkscape:window-maximized="0" inkscape:window-y="27" inkscape:window-x="0" inkscape:window-height="480" inkscape:window-width="640" inkscape:pageopacity="0" inkscape:pageshadow="2" bordercolor="#666666" borderopacity="1" pagecolor="#ffffff" inkscape:zoom="1.5733333" showgrid="false" objecttolerance="10" gridtolerance="10" inkscape:cx="74.999998" guidetolerance="10" id="namedview2997" inkscape:cy="74.999998">
	</sodipodi:namedview>
<g>
	<path d="M58.844,47.242l-5.967-10.636h-26.98l-13.49,23.348l5.967,10.636h26.98L58.844,47.242z M58.844,47.242L58.844,47.242
		 M52.877,36.606L52.877,36.606 M25.897,36.606L25.897,36.606 M12.407,59.954L12.407,59.954 M18.374,70.59L18.374,70.59
		 M45.354,70.59L45.354,70.59 M45.354,79.41h-26.98l-5.967,10.636l13.49,23.348h26.98l5.967-10.636L45.354,79.41z M45.354,79.41
		L45.354,79.41 M18.374,79.41L18.374,79.41 M12.407,90.046L12.407,90.046 M25.897,113.394L25.897,113.394 M52.877,113.394
		L52.877,113.394 M58.844,102.758L58.844,102.758 M78.819,51.652H66.626L53.136,75l13.49,23.348h12.193L92.309,75L78.819,51.652z
		 M78.819,51.652L78.819,51.652 M66.626,51.652L66.626,51.652 M53.136,75L53.136,75 M66.626,98.348L66.626,98.348 M78.819,98.348
		L78.819,98.348 M92.309,75L92.309,75"/>
</g>
</svg>
