<?xml version="1.0" encoding="utf-8"?>
<!-- Generator: Adobe Illustrator 17.0.0, SVG Export Plug-In . SVG Version: 6.00 Build 0)  -->
<!DOCTYPE svg PUBLIC "-//W3C//DTD SVG 1.1//EN" "http://www.w3.org/Graphics/SVG/1.1/DTD/svg11.dtd">
<svg version="1.1"
	 id="svg2" inkscape:version="0.48.3.1 r9886" sodipodi:docname="uE005-arrow-up.svg" xmlns:dc="http://purl.org/dc/elements/1.1/" xmlns:svg="http://www.w3.org/2000/svg" xmlns:cc="http://creativecommons.org/ns#" xmlns:inkscape="http://www.inkscape.org/namespaces/inkscape" xmlns:sodipodi="http://sodipodi.sourceforge.net/DTD/sodipodi-0.dtd" xmlns:rdf="http://www.w3.org/1999/02/22-rdf-syntax-ns#"
	 xmlns="http://www.w3.org/2000/svg" xmlns:xlink="http://www.w3.org/1999/xlink" x="0px" y="0px" width="100px" height="150px"
	 viewBox="0 0 100 150" enable-background="new 0 0 100 150" xml:space="preserve">
<sodipodi:namedview  inkscape:pageshadow="2" inkscape:window-height="480" inkscape:current-layer="svg2" inkscape:window-width="640" inkscape:window-maximized="0" inkscape:pageopacity="0" inkscape:window-y="27" inkscape:window-x="0" inkscape:zoom="1.5733333" inkscape:cy="74.999998" guidetolerance="10" inkscape:cx="74.999998" objecttolerance="10" showgrid="false" id="namedview2997" bordercolor="#666666" borderopacity="1" pagecolor="#ffffff" gridtolerance="10">
	</sodipodi:namedview>
<path fill="#050505" d="M89.291,67.642c-2.892-4.718-6.905-7.878-11.486-9.899c4.526,3.083,8.204,7.486,10.014,13.511
	c0.007,0.022-4.113-10.902-15.959-14.125c-12.449-3.386-26.548-1.225-37.886,6.18c-7.764,5.066-15.827,12.992-20.542,22.61
	c1.399-5.388,4.23-10.403,7.864-14.843c-4.957,4.611-9.164,9.977-12.188,15.816c-7.871,15.18-3.519,33.194,12.384,41.021
	c14.08,6.931,32.169,3.319,45.61-3.46c5.634,2.127,11.849,2.979,17.749,4.437l-6.655-13.311
	C90.143,103.026,100.208,84.294,89.291,67.642 M68.117,119.091c-1.88-0.726-2.15-1.092-4.009-0.248
	c-3.558,1.606-7.246,2.927-11.028,3.882c-14.054,3.519-31.7,0.077-38.009-14.614c-5.984-13.918,3.634-29.209,14.251-37.679
	c9.577-7.649,22.388-11.949,34.708-10.813c7.149,0.662,13.842,3.834,17.761,10.044c9.257,13.599,1.424,33.227-10.099,42.815
	c2.141,3.512,4.726,6.82,6.465,10.502C74.808,121.681,71.462,120.382,68.117,119.091"/>
<polygon fill="#050505" points="54.752,67.672 44.5,67.672 44.895,82.489 32.458,74.485 27.297,83.147 40.26,90.558 27.297,97.972 
	32.458,106.634 44.895,98.958 44.5,113.455 54.752,113.455 54.357,98.958 66.726,106.634 71.953,97.972 58.921,90.558 
	71.953,83.147 66.726,74.485 54.357,82.489 "/>
</svg>
