<?xml version="1.0" encoding="utf-8"?>
<!-- Generator: Adobe Illustrator 17.0.0, SVG Export Plug-In . SVG Version: 6.00 Build 0)  -->
<!DOCTYPE svg PUBLIC "-//W3C//DTD SVG 1.1//EN" "http://www.w3.org/Graphics/SVG/1.1/DTD/svg11.dtd">
<svg version="1.1"
	 id="svg2" inkscape:version="0.48.3.1 r9886" sodipodi:docname="uE005-arrow-up.svg" xmlns:dc="http://purl.org/dc/elements/1.1/" xmlns:svg="http://www.w3.org/2000/svg" xmlns:cc="http://creativecommons.org/ns#" xmlns:inkscape="http://www.inkscape.org/namespaces/inkscape" xmlns:sodipodi="http://sodipodi.sourceforge.net/DTD/sodipodi-0.dtd" xmlns:rdf="http://www.w3.org/1999/02/22-rdf-syntax-ns#"
	 xmlns="http://www.w3.org/2000/svg" xmlns:xlink="http://www.w3.org/1999/xlink" x="0px" y="0px" width="100px" height="150px"
	 viewBox="0 0 100 150" enable-background="new 0 0 100 150" xml:space="preserve">
<sodipodi:namedview  inkscape:pageshadow="2" inkscape:window-height="480" inkscape:current-layer="svg2" inkscape:window-width="640" inkscape:window-maximized="0" inkscape:pageopacity="0" inkscape:window-y="27" inkscape:window-x="0" inkscape:zoom="1.5733333" inkscape:cy="74.999998" guidetolerance="10" inkscape:cx="74.999998" objecttolerance="10" showgrid="false" id="namedview2997" bordercolor="#666666" borderopacity="1" pagecolor="#ffffff" gridtolerance="10">
	</sodipodi:namedview>
<path fill="#020202" d="M82.889,100.648c0.514-2.763,0.468-6.967-1.99-10.811c-0.674,1.328-1.403,2.681-2.186,4.057
	c-3.136,5.51-6.387,10.073-9.753,13.689c-2.021,2.19-4.431,4.266-7.23,6.227c-0.259,0.173-0.957,0.671-2.093,1.495
	c-1.136,0.823-1.926,1.389-2.369,1.698s-1.132,0.745-2.067,1.309c-0.935,0.563-1.791,1.011-2.568,1.344
	c-0.777,0.333-1.593,0.616-2.448,0.851c-2.914,0.8-6.081,0.802-9.502,0.004c-3.686-0.895-6.079-2.043-7.179-3.444
	c-0.566-0.696-1.196-1.689-1.891-2.98c-0.695-1.291-1.16-2.364-1.395-3.219c-0.122-0.443-0.166-0.789-0.132-1.037
	c0.033-0.622,1.006-1.792,2.919-3.51c0.506-0.514,1.231-1.224,2.174-2.13c0.943-0.906,1.797-1.737,2.56-2.491
	c0.763-0.755,1.476-1.478,2.137-2.171c0.101-0.13,0.42-0.516,0.959-1.158s1.008-1.137,1.406-1.485
	c0.398-0.348,0.819-0.583,1.263-0.704c0.633-0.174,1.549,0.06,2.747,0.701c1.198,0.642,2.339,1.384,3.422,2.228
	c1.083,0.843,2.192,1.595,3.327,2.254c1.135,0.659,1.987,0.91,2.557,0.754c0.285-0.078,0.62-0.255,1.004-0.531
	s0.672-0.5,0.863-0.671c0.191-0.172,0.51-0.498,0.957-0.978c0.447-0.48,0.698-0.745,0.753-0.794
	c3.678-3.599,6.642-7.376,8.893-11.332c0.844-1.484,1.592-3.066,2.29-4.696c-3.351-0.455-7.295,0.175-11.166,3.175
	c-8.427-16.663-25.526-13.814-31.612-9.834c-5.833,3.814-12.542,11.136-9.991,24.08c-7.878,2.172-13.743,9.244-13.743,17.798
	c0,10.178,8.247,18.422,18.422,18.422h55.548c10.176,0,18.423-8.245,18.423-18.422C96.197,109.938,91.072,103.205,82.889,100.648z"
	/>
<path fill="#020202" d="M64.704,64.476c1.164,0.702,2.385,1.303,3.663,1.804c1.278,0.5,2.491,1.07,3.637,1.709
	c1.146,0.639,1.798,1.243,1.954,1.813c0.078,0.285,0.097,0.663,0.056,1.134c-0.041,0.471-0.086,0.833-0.136,1.085
	s-0.167,0.693-0.352,1.323c-0.185,0.63-0.284,0.981-0.298,1.053c-0.759,3.125-1.745,6.021-2.909,8.738
	c2.76,0.375,5.119,1.483,6.695,2.632c1.71,1.247,2.964,2.643,3.889,4.089c2.025-3.99,3.558-7.763,4.6-11.32
	c0.85-2.856,1.403-5.988,1.659-9.397c0.017-0.311,0.089-1.165,0.216-2.563c0.127-1.397,0.21-2.365,0.25-2.904
	c0.039-0.539,0.062-1.354,0.069-2.446s-0.046-2.057-0.156-2.895c-0.111-0.838-0.284-1.685-0.519-2.54
	c-0.8-2.914-2.417-5.637-4.85-8.171c-2.652-2.712-4.861-4.182-6.628-4.412c-0.887-0.131-2.064-0.166-3.528-0.104
	c-1.465,0.062-2.625,0.21-3.48,0.445c-0.443,0.122-0.763,0.261-0.958,0.417c-0.518,0.347-1.027,1.781-1.526,4.302
	c-0.183,0.697-0.423,1.683-0.721,2.957s-0.575,2.432-0.834,3.473s-0.517,2.024-0.775,2.946c-0.06,0.153-0.229,0.625-0.505,1.416
	s-0.463,1.447-0.558,1.967c-0.096,0.52-0.082,1.002,0.039,1.445C62.871,63.106,63.54,63.774,64.704,64.476z"/>
</svg>
