<?xml version="1.0" encoding="utf-8"?>
<!-- Generator: Adobe Illustrator 17.0.0, SVG Export Plug-In . SVG Version: 6.00 Build 0)  -->
<!DOCTYPE svg PUBLIC "-//W3C//DTD SVG 1.1//EN" "http://www.w3.org/Graphics/SVG/1.1/DTD/svg11.dtd">
<svg version="1.1" id="Layer_1" xmlns="http://www.w3.org/2000/svg" xmlns:xlink="http://www.w3.org/1999/xlink" x="0px" y="0px"
	 width="1920px" height="1920px" viewBox="0 0 1920 1920" enable-background="new 0 0 1920 1920" xml:space="preserve">
<path fill="#020202" stroke="#000000" stroke-width="0.7087" stroke-linecap="round" stroke-linejoin="round" stroke-miterlimit="10" d="
	M1440.045,606.409l-374.37,648.425l374.37,648.425l374.37-648.425L1440.045,606.409z M1286.319,1254.835l153.746-266.273
	l153.742,266.273l-153.742,266.273L1286.319,1254.835z"/>
<path fill="#020202" stroke="#000000" stroke-width="0.7087" stroke-linecap="round" stroke-linejoin="round" stroke-miterlimit="10" d="
	M861.739,1372.575H113L487.37,2021h748.739L861.739,1372.575z M443.957,1563.649h307.469l153.746,266.273H597.683L443.957,1563.649z
	"/>
<path fill="#020202" stroke="#000000" stroke-width="0.7087" stroke-linecap="round" stroke-linejoin="round" stroke-miterlimit="10" d="
	M487.37,488.673L113,1137.098h748.739l374.37-648.425C1236.109,488.673,487.37,488.673,487.37,488.673z M751.426,946.02H443.957
	l153.742-266.273h307.469L751.426,946.02z"/>
</svg>
