<?xml version="1.0" encoding="utf-8"?>
<!-- Generator: Adobe Illustrator 17.0.0, SVG Export Plug-In . SVG Version: 6.00 Build 0)  -->
<!DOCTYPE svg PUBLIC "-//W3C//DTD SVG 1.1//EN" "http://www.w3.org/Graphics/SVG/1.1/DTD/svg11.dtd">
<svg version="1.1" id="Layer_1" xmlns="http://www.w3.org/2000/svg" xmlns:xlink="http://www.w3.org/1999/xlink" x="0px" y="0px"
	 width="1920px" height="1920px" viewBox="0 0 1920 1920" enable-background="new 0 0 1920 1920" xml:space="preserve">
<g>
	<g>
		<path fill="#231F20" d="M1340.446,888.855c-100.994,0-183.225,82.206-183.225,183.254c0,101.019,82.206,183.2,183.225,183.2
			c101.019,0,183.2-82.181,183.2-183.2C1523.621,971.061,1441.44,888.855,1340.446,888.855z M1340.446,1176.176
			c-57.398,0-104.124-46.668-104.124-104.042c0-57.427,46.722-104.096,104.124-104.096c57.402,0,104.016,46.697,104.016,104.096
			C1444.437,1129.507,1397.819,1176.176,1340.446,1176.176z"/>
	</g>
	<g>
		<path fill="#231F20" d="M1340.446,1270.291c-76.107,0-143.594,47.581-170.515,117.906c-21.085-1.634-46.535-3.372-69.979-4.656
			c-23.736-1.284-48.998-21.731-73.348-41.503c-12.79-10.409-24.912-20.072-35.296-26.734
			c-18.196-13.14-34.788-27.964-49.532-41.103c-19.855-17.608-41.666-36.984-67.007-51.862c4.094-5.807,7.921-11.96,11.506-18.517
			c35.029-58.39,34.575-121.358,34.174-177.072c-0.133-19.563-0.267-39.819,1.042-59.086
			c4.602-56.998,43.512-134.898,86.595-173.404c33.395-29.009,73.268-38.214,119.536-48.89c13.782-3.185,27.722-6.636,41.691-10.597
			c26.467,70.859,93.715,118.519,171.157,118.519c100.994,0,183.2-82.181,183.2-183.2c0-101.044-82.181-183.254-183.2-183.254
			c-95.079,0-173.537,72.814-182.129,168.856c-14.398,4.415-29.918,8.242-48.515,12.523c-49.373,11.318-105.3,24.191-154.086,66.661
			c-59.299,53.092-106.88,148.358-113.167,226.766c-1.551,21.677-1.417,43.35-1.284,65.694
			c0.429,51.729,0.721,96.388-23.762,137.332c-12.631,23.336-23.44,29.998-33.478,32.486l-4.898-0.079
			c-6.236-0.267-12.685-0.321-19.426-0.321l-3.344,0.025c-20.393-79.959-93.098-138.053-176.855-138.053
			c-100.994,0-183.2,82.181-183.2,183.2c0,101.044,82.206,183.225,183.2,183.225c87.533,0,160.91-61.092,178.464-145.253
			l2.864-0.162c10.543-0.375,20.631-1.418,30.239-3.185c34.387,2.276,60.212,23.174,98.343,57.132
			c17.02,15.12,34.575,30.719,57.265,47.018c9.471,6.103,19.426,14.29,30.026,22.853c30.99,25.129,69.604,56.464,119.028,59.032
			c20.552,1.096,42.708,2.647,61.95,4.04c6.745,94.945,86.141,170.114,182.745,170.114c100.994,0,183.2-82.206,183.2-183.279
			C1523.621,1352.443,1441.44,1270.291,1340.446,1270.291z M1340.446,1557.532c-57.398,0-104.124-46.697-104.124-104.07
			c0-57.402,46.722-104.042,104.124-104.042c57.402,0,104.016,46.643,104.016,104.042
			C1444.437,1510.839,1397.819,1557.532,1340.446,1557.532z M1340.446,566.022c57.402,0,104.016,46.697,104.016,104.07
			c0,57.402-46.614,104.07-104.016,104.07c-57.398,0-104.124-46.668-104.124-104.07
			C1236.325,612.719,1283.048,566.022,1340.446,566.022z M579.5,1345.969c-57.398,0-104.042-46.668-104.042-104.07
			c0-57.373,46.668-104.042,104.042-104.042c55.126,0,100.536,43.35,103.428,97.488l0.054,11.91
			C680.035,1302.644,634.597,1345.969,579.5,1345.969z"/>
		<g>
			<path fill="#231F20" d="M1340.446,1659.677c-100.994,0-183.225,82.152-183.225,183.2c0,101.044,82.206,183.225,183.225,183.225
				c101.019,0,183.2-82.152,183.2-183.225C1523.621,1741.857,1441.44,1659.677,1340.446,1659.677z M1340.446,1946.947
				c-57.398,0-104.124-46.697-104.124-104.07c0-57.348,46.722-104.07,104.124-104.07c57.402,0,104.016,46.722,104.016,104.07
				C1444.437,1900.25,1397.819,1946.947,1340.446,1946.947z"/>
		</g>
	</g>
</g>
</svg>
