<?xml version="1.0" encoding="utf-8"?>
<!-- Generator: Adobe Illustrator 17.0.0, SVG Export Plug-In . SVG Version: 6.00 Build 0)  -->
<!DOCTYPE svg PUBLIC "-//W3C//DTD SVG 1.1//EN" "http://www.w3.org/Graphics/SVG/1.1/DTD/svg11.dtd">
<svg version="1.1" id="Layer_1" xmlns="http://www.w3.org/2000/svg" xmlns:xlink="http://www.w3.org/1999/xlink" x="0px" y="0px"
	 width="1920px" height="1920px" viewBox="0 0 1920 1920" enable-background="new 0 0 1920 1920" xml:space="preserve">
<g>
	<path d="M1.681,1443.588c-15.966,18.333-26.021,41.987-26.021,68.107L1.681,1443.588z"/>
	<path d="M1623.206,1511.695c0-28.977-11.926-55.291-31.046-74.118L1623.206,1511.695z"/>
	<path d="M1279.721,1267.067h-0.396c-261.975,0-452.1-158.192-452.1-376.403c0-60.023,14.293-116.794,38.834-167.554H340.731
		c-57.558,0-104.278,46.716-104.278,104.377L1.78,1443.691c19.12-21.981,46.914-36.072,78.257-36.072h1438.989
		c28.482,0,54.404,11.531,73.133,30.16l-72.246-172.588L1279.721,1267.067z"/>
	<path d="M1518.928,1509.131H79.938c-57.558,0-104.278,46.815-104.278,104.377v304.454c0,57.558,46.716,104.278,104.278,104.278
		h1438.989c57.558,0,104.278-46.716,104.278-104.278v-304.454C1623.206,1555.946,1576.486,1509.131,1518.928,1509.131z
		 M1427.166,1804.816h-286.813v-78.257h286.813V1804.816z"/>
	<path d="M1683.328,603.455c-44.844-71.752-124.285-116.695-209.933-116.695c-81.708,0-157.796,40.903-203.527,106.937
		c-17.347-3.055-34.893-4.535-52.533-4.535c-169.426,0-307.216,137.79-307.216,307.314c0,175.535,153.855,298.146,373.843,298.146
		h0.198l380.052-3.154l3.842-0.198C1819.939,1178.36,1939,1048.951,1939,896.477C1938.992,746.468,1828.901,623.07,1683.328,603.455
		z M1661.248,1089.063l-377.488,3.154c-159.668-0.099-271.239-80.524-271.239-195.744c0-112.952,91.956-204.908,204.809-204.908
		c21.19,0,42.086,3.253,62.291,9.758l43.171,13.699l18.823-41.101c23.655-51.35,75.4-84.663,131.775-84.663
		c56.28,0,107.922,33.116,131.676,84.367l13.208,28.68l31.442,1.084c104.769,3.648,186.872,88.411,186.872,193.18
		C1836.59,995.627,1759.714,1079.898,1661.248,1089.063z"/>
</g>
</svg>
