<?xml version="1.0" encoding="utf-8"?>
<!-- Generator: Adobe Illustrator 17.0.0, SVG Export Plug-In . SVG Version: 6.00 Build 0)  -->
<!DOCTYPE svg PUBLIC "-//W3C//DTD SVG 1.1//EN" "http://www.w3.org/Graphics/SVG/1.1/DTD/svg11.dtd">
<svg version="1.1" id="Layer_1" xmlns="http://www.w3.org/2000/svg" xmlns:xlink="http://www.w3.org/1999/xlink" x="0px" y="0px"
	 width="1920px" height="1920px" viewBox="0 0 1920 1920" enable-background="new 0 0 1920 1920" xml:space="preserve">
<path d="M347.301,1374.384v-186.337c0-21.489,6.858-42.568,18.573-62.488c65.711,113.918,306.459,198.331,594.06,198.331
	c287.822,0,528.413-84.349,594.192-198.331c11.561,19.924,18.573,40.998,18.573,62.488v186.334
	c0,144.052-274.385,260.822-612.765,260.822C621.839,1635.207,347.301,1518.501,347.301,1374.384z M959.934,2020.068
	c338.377,0,612.765-116.616,612.765-260.54v-186.62c0-21.643-6.99-42.285-18.573-62.205
	c-65.776,113.764-306.391,198.049-594.192,198.049c-287.604,0-528.349-84.284-594.06-198.049
	c-11.715,19.924-18.573,40.562-18.573,62.205v186.62C347.301,1903.516,621.839,2020.068,959.934,2020.068z M959.934,1259.812
	c338.377,0,612.765-117.052,612.765-260.951V812.396c0-20.489-6.358-40.434-16.854-59.572
	c-11.715,105.491-273.666,189.84-595.911,189.84s-583.85-84.349-595.693-189.84c-10.646,19.138-16.918,39.061-16.918,59.572v186.466
	C347.301,1142.846,621.839,1259.812,959.934,1259.812z M959.934,883.593c329.821,0,597.13-88.333,597.13-197.33
	s-267.33-197.33-597.13-197.33s-597.13,88.333-597.13,197.33S630.113,883.593,959.934,883.593z"/>
</svg>
